<mxfile host="app.diagrams.net" modified="2024-05-01T04:13:18.170Z" agent="Mozilla/5.0 (Windows NT 10.0; Win64; x64) AppleWebKit/537.36 (KHTML, like Gecko) Chrome/124.0.0.0 Safari/537.36" etag="BuDIz5D-oOXhpHwRnt0V" version="24.0.7" type="device">
  <diagram name="Page-1" id="VESCe16xSaLCjA-g90px">
    <mxGraphModel dx="794" dy="458" grid="1" gridSize="10" guides="1" tooltips="1" connect="1" arrows="1" fold="1" page="1" pageScale="1" pageWidth="827" pageHeight="1169" math="0" shadow="0">
      <root>
        <mxCell id="0" />
        <mxCell id="1" parent="0" />
        <mxCell id="aSqsJ9CFv7Ab1S9mndEV-1" value="" style="whiteSpace=wrap;html=1;aspect=fixed;fillColor=#006600;rounded=1;shadow=1;" vertex="1" parent="1">
          <mxGeometry x="150" y="140" width="240" height="240" as="geometry" />
        </mxCell>
        <mxCell id="aSqsJ9CFv7Ab1S9mndEV-2" value="Start" style="rounded=0;whiteSpace=wrap;html=1;fillColor=#B3B3B3;" vertex="1" parent="1">
          <mxGeometry x="215" y="230" width="110" height="30" as="geometry" />
        </mxCell>
        <mxCell id="aSqsJ9CFv7Ab1S9mndEV-3" value="Welcome to Poker" style="rounded=0;whiteSpace=wrap;html=1;" vertex="1" parent="1">
          <mxGeometry x="207.5" y="160" width="125" height="30" as="geometry" />
        </mxCell>
        <mxCell id="aSqsJ9CFv7Ab1S9mndEV-5" value="Exit" style="rounded=0;whiteSpace=wrap;html=1;fillColor=#B3B3B3;" vertex="1" parent="1">
          <mxGeometry x="215" y="280" width="110" height="30" as="geometry" />
        </mxCell>
        <mxCell id="aSqsJ9CFv7Ab1S9mndEV-6" value="" style="endArrow=classic;html=1;rounded=0;exitX=1;exitY=0.75;exitDx=0;exitDy=0;" edge="1" parent="1" source="aSqsJ9CFv7Ab1S9mndEV-2">
          <mxGeometry width="50" height="50" relative="1" as="geometry">
            <mxPoint x="440" y="290" as="sourcePoint" />
            <mxPoint x="500" y="253" as="targetPoint" />
          </mxGeometry>
        </mxCell>
        <mxCell id="aSqsJ9CFv7Ab1S9mndEV-7" value="" style="whiteSpace=wrap;html=1;aspect=fixed;fillColor=#006600;rounded=1;shadow=1;" vertex="1" parent="1">
          <mxGeometry x="500" y="140" width="240" height="240" as="geometry" />
        </mxCell>
        <mxCell id="aSqsJ9CFv7Ab1S9mndEV-8" value="Dealer" style="text;html=1;align=center;verticalAlign=middle;whiteSpace=wrap;rounded=0;" vertex="1" parent="1">
          <mxGeometry x="590" y="140" width="60" height="30" as="geometry" />
        </mxCell>
      </root>
    </mxGraphModel>
  </diagram>
</mxfile>
